<?xml version="1.0" encoding="utf-8"?>
<!-- Generator: Adobe Illustrator 22.0.1, SVG Export Plug-In . SVG Version: 6.00 Build 0)  -->
<svg version="1.1" id="Layer_1" xmlns="http://www.w3.org/2000/svg" xmlns:xlink="http://www.w3.org/1999/xlink" x="0px" y="0px"
	 viewBox="0 0 66 66" style="enable-background:new 0 0 66 66;" xml:space="preserve">
<style type="text/css">
	.st0{opacity:0.5;}
	.st1{fill:url(#SVGID_1_);}
	.st2{opacity:0.8;}
	.st3{fill:url(#SVGID_2_);}
	.st4{opacity:0.8;fill:url(#SVGID_3_);enable-background:new    ;}
	.st5{opacity:0.8;fill:url(#SVGID_4_);enable-background:new    ;}
	.st6{fill:url(#SVGID_5_);}
	.st7{fill:url(#SVGID_6_);}
	.st8{opacity:0.25;}
	.st9{fill:url(#SVGID_7_);}
</style>
<g>
	<g class="st2">
		
			<linearGradient id="SVGID_1_" gradientUnits="userSpaceOnUse" x1="33" y1="9.9912" x2="33" y2="33.4326" gradientTransform="matrix(1 0 0 -1 0 67)">
			<stop  offset="0" style="stop-color:#FFFFFF"/>
			<stop  offset="0.8292" style="stop-color:#FFFFFF;stop-opacity:0"/>
		</linearGradient>
		<path class="st1" d="M31.6,56.6L13,46.2c-0.9-0.3-0.9-1.4,0-2l18.5-10.4c0.9-0.6,2-0.6,2.9,0L53,44.2c0.9,0.3,0.9,1.4,0,2
			L34.4,56.6C33.6,57.2,32.4,57.2,31.6,56.6z"/>
	</g>
	<g class="st0">
		
			<linearGradient id="SVGID_2_" gradientUnits="userSpaceOnUse" x1="33" y1="22.1181" x2="33" y2="45.6646" gradientTransform="matrix(1 0 0 -1 0 67)">
			<stop  offset="0" style="stop-color:#FFFFFF"/>
			<stop  offset="1" style="stop-color:#FFFFFF;stop-opacity:0"/>
		</linearGradient>
		<path class="st3" d="M31.6,44.4L13,34c-0.9-0.3-0.9-1.4,0-2l18.8-10.4c0.6-0.3,1.4-0.3,2.3,0L53,32c0.9,0.3,0.9,1.4,0,2L34.4,44.4
			C33.6,45,32.4,45,31.6,44.4z"/>
	</g>
	<g class="st8">
		
			<linearGradient id="SVGID_3_" gradientUnits="userSpaceOnUse" x1="33" y1="34.2898" x2="33" y2="57.7311" gradientTransform="matrix(1 0 0 -1 0 67)">
			<stop  offset="0" style="stop-color:#FFFFFF"/>
			<stop  offset="1" style="stop-color:#FFFFFF;stop-opacity:0"/>
		</linearGradient>
		<path style="fill:url(#SVGID_3_);" d="M31.6,32.3L13,21.8c-0.9-0.3-0.9-1.4,0-2L31.6,9.4c0.9-0.6,2-0.6,2.9,0L53,19.8
			c0.9,0.3,0.9,1.4,0,2L34.4,32.3C33.6,32.9,32.4,32.9,31.6,32.3z"/>
	</g>
</g>
</svg>
