<?xml version="1.0" encoding="utf-8"?>
<!-- Generator: Adobe Illustrator 19.2.0, SVG Export Plug-In . SVG Version: 6.00 Build 0)  -->
<svg version="1.1" id="Layer_1" xmlns="http://www.w3.org/2000/svg" xmlns:xlink="http://www.w3.org/1999/xlink" x="0px" y="0px"
	 viewBox="0 0 32 32" style="enable-background:new 0 0 32 32;" xml:space="preserve">
<style type="text/css">
	.st0{fill:none;stroke:#2E3B4E;stroke-width:1.5;stroke-linecap:round;stroke-linejoin:round;stroke-miterlimit:10;}
</style>
<polyline class="st0" points="15,10.9 13,13 12,11.9 "/>
<polyline class="st0" points="15,15.9 13,18 12,16.9 "/>
<path class="st0" d="M20,3h7c0.7,0,1,0.4,1,1v26c0,0.6-0.3,1-1,1H5c-0.7,0-1-0.4-1-1V4c0-0.6,0.3-1,1-1h7"/>
<line class="st0" x1="18" y1="21.9" x2="20" y2="21.9"/>
<line class="st0" x1="18" y1="16.9" x2="20" y2="16.9"/>
<line class="st0" x1="18.1" y1="12" x2="20.1" y2="12"/>
<line class="st0" x1="20" y1="27" x2="24" y2="27"/>
<polygon class="st0" points="24,27 8,27 8,7 24,7 "/>
<polygon class="st0" points="20,7 12,7 12,1 20,1 "/>
</svg>
