<?xml version="1.0" encoding="utf-8"?>
<!-- Generator: Adobe Illustrator 19.2.0, SVG Export Plug-In . SVG Version: 6.00 Build 0)  -->
<svg version="1.1" id="Layer_1" xmlns="http://www.w3.org/2000/svg" xmlns:xlink="http://www.w3.org/1999/xlink" x="0px" y="0px"
	 viewBox="0 0 32 32" style="enable-background:new 0 0 32 32;" xml:space="preserve">
<style type="text/css">
	.st0{fill:none;stroke:#2E3B4E;stroke-width:1.5;stroke-linecap:round;stroke-linejoin:round;stroke-miterlimit:10;}
	.st1{fill:#2E3B4E;}
</style>
<path class="st0" d="M12,14H2V2h12v10"/>
<circle class="st1" cx="2" cy="30" r="0.8"/>
<circle class="st1" cx="2" cy="26" r="0.8"/>
<circle class="st1" cx="2" cy="22" r="0.8"/>
<circle class="st1" cx="2" cy="18" r="0.8"/>
<circle class="st1" cx="6" cy="30" r="0.8"/>
<circle class="st1" cx="10" cy="30" r="0.8"/>
<circle class="st1" cx="14" cy="30" r="0.8"/>
<circle class="st1" cx="30" cy="14" r="0.8"/>
<circle class="st1" cx="30" cy="10" r="0.8"/>
<circle class="st1" cx="30" cy="6" r="0.8"/>
<circle class="st1" cx="30" cy="2" r="0.8"/>
<circle class="st1" cx="26" cy="2" r="0.8"/>
<circle class="st1" cx="22" cy="2" r="0.8"/>
<circle class="st1" cx="18" cy="2" r="0.8"/>
<path class="st0" d="M16,16h-4v-4h4V16z"/>
<path class="st0" d="M20,29l-4.2-11.8c-0.3-0.9,0.5-1.7,1.4-1.4L29,20l-3.9,2.4L30,27l-3,3l-4.8-4.8L20,29z"/>
</svg>
