<?xml version="1.0" encoding="utf-8"?>
<!-- Generator: Adobe Illustrator 19.2.0, SVG Export Plug-In . SVG Version: 6.00 Build 0)  -->
<svg version="1.1" id="Layer_1" xmlns="http://www.w3.org/2000/svg" xmlns:xlink="http://www.w3.org/1999/xlink" x="0px" y="0px"
	 viewBox="0 0 32 32" style="enable-background:new 0 0 32 32;" xml:space="preserve">
<style type="text/css">
	.st0{fill:none;stroke:#2E3B4E;stroke-width:1.5;stroke-linecap:round;stroke-linejoin:round;stroke-miterlimit:10;}
</style>
<polyline class="st0" points="2.1,3 2.1,2 3.1,2 "/>
<line class="st0" x1="2.1" y1="9" x2="2.1" y2="7"/>
<polyline class="st0" points="3.1,20 2.1,20 2.1,19 "/>
<polyline class="st0" points="20.1,19 20.1,20 19.1,20 "/>
<polyline class="st0" points="19.1,2 20.1,2 20.1,3 "/>
<line class="st0" x1="7.1" y1="2" x2="9.1" y2="2"/>
<line class="st0" x1="7.1" y1="20" x2="9.1" y2="20"/>
<line class="st0" x1="20.1" y1="9" x2="20.1" y2="7"/>
<line class="st0" x1="20.1" y1="15" x2="20.1" y2="13"/>
<line class="st0" x1="2.1" y1="15" x2="2.1" y2="13"/>
<line class="st0" x1="13.1" y1="2" x2="15.1" y2="2"/>
<line class="st0" x1="13.1" y1="20" x2="15.1" y2="20"/>
<path class="st0" d="M30,30H12V12h18V30z"/>
</svg>
