<?xml version="1.0" encoding="utf-8"?>
<!-- Generator: Adobe Illustrator 19.2.0, SVG Export Plug-In . SVG Version: 6.00 Build 0)  -->
<svg version="1.1" id="Layer_1" xmlns="http://www.w3.org/2000/svg" xmlns:xlink="http://www.w3.org/1999/xlink" x="0px" y="0px"
	 viewBox="0 0 32 32" style="enable-background:new 0 0 32 32;" xml:space="preserve">
<style type="text/css">
	.st0{fill:none;stroke:#2E3B4E;stroke-width:1.5;stroke-linecap:round;stroke-linejoin:round;stroke-miterlimit:10;}
</style>
<path class="st0" d="M10,10H2V2h8V10z"/>
<path class="st0" d="M30,10h-8V2h8V10z"/>
<path class="st0" d="M30,30h-8v-8h8V30z"/>
<path class="st0" d="M10,30H2v-8h8V30z"/>
<line class="st0" x1="14" y1="6" x2="18" y2="6"/>
<polyline class="st0" points="16,4 18,6 16,8 "/>
<line class="st0" x1="26" y1="14" x2="26" y2="18"/>
<polyline class="st0" points="28,16 26,18 24,16 "/>
<line class="st0" x1="18" y1="26" x2="14" y2="26"/>
<polyline class="st0" points="16,28 14,26 16,24 "/>
<line class="st0" x1="6" y1="18" x2="6" y2="14"/>
<polyline class="st0" points="4,16 6,14 8,16 "/>
</svg>
