<?xml version="1.0" encoding="utf-8"?>
<!-- Generator: Adobe Illustrator 19.2.0, SVG Export Plug-In . SVG Version: 6.00 Build 0)  -->
<svg version="1.1" id="Layer_1" xmlns="http://www.w3.org/2000/svg" xmlns:xlink="http://www.w3.org/1999/xlink" x="0px" y="0px"
	 viewBox="0 0 32 32" style="enable-background:new 0 0 32 32;" xml:space="preserve">
<style type="text/css">
	.st0{fill:none;stroke:#2E3B4E;stroke-width:1.5;stroke-linecap:round;stroke-linejoin:round;stroke-miterlimit:10;}
	.st1{fill:none;stroke:#2E3B4E;stroke-width:1.5;stroke-miterlimit:10;}
</style>
<path class="st0" d="M13,22h6v4h-6V22z"/>
<polyline class="st0" points="15,22 13,13 16,14 19,13 17,22 "/>
<line class="st0" x1="3" y1="11" x2="1" y2="11"/>
<line class="st0" x1="4" y1="7" x2="2" y2="5"/>
<line class="st0" x1="2" y1="17" x2="4" y2="15"/>
<line class="st0" x1="29" y1="11" x2="31" y2="11"/>
<line class="st0" x1="28" y1="7" x2="30" y2="5"/>
<line class="st0" x1="30" y1="17" x2="28" y2="15"/>
<path class="st1" d="M18,27c0,1.1-0.9,2-2,2s-2-0.9-2-2"/>
<path class="st0" d="M19,22h-6l-5.5-8.3C5.5,9,9.8,3.5,15.2,3c0.3,0,0.5,0,0.8,0l0,0c0.3,0,0.5,0,0.8,0c5.4,0.5,9.7,5.9,7.7,10.6
	L19,22z"/>
</svg>
