<?xml version="1.0" encoding="utf-8"?>
<!-- Generator: Adobe Illustrator 19.2.0, SVG Export Plug-In . SVG Version: 6.00 Build 0)  -->
<svg version="1.1" id="Layer_1" xmlns="http://www.w3.org/2000/svg" xmlns:xlink="http://www.w3.org/1999/xlink" x="0px" y="0px"
	 viewBox="0 0 120 120" style="enable-background:new 0 0 120 120;" xml:space="preserve">
<style type="text/css">
	.st0{fill:none;}
	.st1{fill:none;stroke:#2E3B4E;stroke-width:2;stroke-linecap:round;stroke-linejoin:round;stroke-miterlimit:10;}
	.st2{fill:none;stroke:#2E3B4E;stroke-width:2;stroke-miterlimit:10;}
</style>
<circle class="st0" cx="60" cy="60" r="59"/>
<g>
	<path class="st1" d="M21,84v3c0,1.7,1.3,3,3,3h72c1.7,0,3-1.3,3-3v-3H66v2H54v-2H21z"/>
	<path class="st2" d="M25,84V35c0-2.8,2.2-5,5-5h60c2.8,0,5,2.2,5,5v49"/>
	<path class="st2" d="M88,36c0.6,0,1,0.5,1,1v40c0,0.5-0.4,1-1,1H32c-0.6,0-1-0.5-1-1V37c0-0.5,0.4-1,1-1H88z"/>
</g>
</svg>
