<?xml version="1.0" encoding="utf-8"?>
<!-- Generator: Adobe Illustrator 19.2.0, SVG Export Plug-In . SVG Version: 6.00 Build 0)  -->
<svg version="1.1" id="Layer_1" xmlns="http://www.w3.org/2000/svg" xmlns:xlink="http://www.w3.org/1999/xlink" x="0px" y="0px"
	 viewBox="0 0 120 120" style="enable-background:new 0 0 120 120;" xml:space="preserve">
<style type="text/css">
	.st0{fill:none;}
	.st1{fill:none;stroke:#2E3B4E;stroke-width:2;stroke-linecap:round;stroke-linejoin:round;stroke-miterlimit:10;}
</style>
<circle class="st0" cx="60" cy="60" r="59"/>
<g>
	<line class="st1" x1="58" y1="43" x2="78" y2="43"/>
	<polyline class="st1" points="48,41 44.1,45.1 42,43 	"/>
	<line class="st1" x1="58" y1="53" x2="78" y2="53"/>
	<polyline class="st1" points="48,50.9 44.1,55 42,52.9 	"/>
	<line class="st1" x1="58" y1="63" x2="78" y2="63"/>
	<line class="st1" x1="58" y1="73" x2="78" y2="73"/>
	<polyline class="st1" points="48,60.9 44.1,65 42,62.9 	"/>
	<line class="st1" x1="58" y1="83" x2="78" y2="83"/>
	<polyline class="st1" points="48,80.9 44.1,85 42,82.9 	"/>
	<path class="st1" d="M72,23h16c1.7,0,3,1.3,3,3v70c0,1.6-1.3,3-3,3H32c-1.6,0-3-1.4-3-3V26c0-1.7,1.4-3,3-3h18"/>
	<path class="st1" d="M72,29h12.5c0.6,0,0.5,0,0.5,0.5v63c0,0.6,0.1,0.5-0.5,0.5h-49C35,93,35,93.1,35,92.5v-63c0-0.5,0-0.5,0.5-0.5
		H50"/>
	<path class="st1" d="M72,31H50V21h22V31z"/>
</g>
</svg>
