<?xml version="1.0" encoding="utf-8"?>
<!-- Generator: Adobe Illustrator 19.2.0, SVG Export Plug-In . SVG Version: 6.00 Build 0)  -->
<svg version="1.1" id="Layer_1" xmlns="http://www.w3.org/2000/svg" xmlns:xlink="http://www.w3.org/1999/xlink" x="0px" y="0px"
	 viewBox="0 0 80 80" style="enable-background:new 0 0 80 80;" xml:space="preserve">
<style type="text/css">
	.st0{fill:none;stroke:#2E3B4E;stroke-width:0.439;stroke-linejoin:round;stroke-miterlimit:10;}
	.st1{fill:none;stroke:#2E3B4E;stroke-width:0.439;stroke-linecap:round;stroke-linejoin:round;stroke-miterlimit:10;}
	.st2{fill:none;stroke:#2E3B4E;stroke-width:0.439;stroke-miterlimit:10;}
	.st3{fill:#2E3B4E;}
</style>
<g>
	<line class="st0" x1="31.4" y1="45" x2="48.6" y2="45"/>
	<line class="st0" x1="40" y1="39.1" x2="40" y2="50.9"/>
	<path class="st1" d="M42.8,43.8C42.3,44.4,40,45,40,45s0.6-2.3,1.2-2.8c0.5-0.5,1.4-0.6,1.8-0.2C43.4,42.4,43.4,43.2,42.8,43.8z"/>
	<path class="st1" d="M37.2,43.8C37.7,44.3,40,45,40,45s-0.6-2.3-1.2-2.8c-0.5-0.5-1.4-0.6-1.8-0.2C36.6,42.4,36.6,43.2,37.2,43.8z"
		/>
	<path class="st1" d="M40,45c0,0-0.5,1.8-3.3,1.8"/>
	<path class="st1" d="M40,45c0,0,0.5,1.8,3.3,1.8"/>
	<path class="st2" d="M48.6,49.8c0,0.6-0.5,1.1-1.1,1.1H32.6c-0.6,0-1.1-0.5-1.1-1.1v-9.7c0-0.6,0.5-1.1,1.1-1.1h14.9
		c0.6,0,1.1,0.5,1.1,1.1V49.8z"/>
</g>
</svg>
