<?xml version="1.0" encoding="utf-8"?>
<!-- Generator: Adobe Illustrator 22.0.1, SVG Export Plug-In . SVG Version: 6.00 Build 0)  -->
<svg version="1.1" id="Layer_1" xmlns="http://www.w3.org/2000/svg" xmlns:xlink="http://www.w3.org/1999/xlink" x="0px" y="0px"
	 viewBox="0 0 80 80" style="enable-background:new 0 0 80 80;" xml:space="preserve">
<style type="text/css">
	.st0{fill:none;stroke:#2E3B4E;stroke-width:0.439;stroke-linecap:round;stroke-linejoin:round;stroke-miterlimit:10;}
	.st1{fill:none;stroke:#2E3B4E;stroke-width:0.439;stroke-linejoin:round;stroke-miterlimit:10;}
</style>
<g>
	<path class="st0" d="M42.9,43.4v-5.8c0-0.6-0.5-1.1-1.1-1.1h-9.2c-0.6,0-1.1,0.5-1.1,1.1v6.6c0,0.6,0.5,1.1,1.1,1.1h0.3
		c0,0,0,0.6-0.5,1.3c1.5,0,2-1.3,2-1.3h2.7"/>
	<path class="st1" d="M38.2,52.2c-0.6,0-1.1-0.5-1.1-1.1v-6.6c0-0.6,0.5-1.1,1.1-1.1h9.2c0.6,0,1.1,0.5,1.1,1.1v6.6
		c0,0.6-0.5,1.1-1.1,1.1h-0.3c0,0,0,0.6,0.5,1.3c-1.5,0-2-1.3-2-1.3H38.2z"/>
</g>
</svg>
