<?xml version="1.0" encoding="utf-8"?>
<!-- Generator: Adobe Illustrator 19.2.0, SVG Export Plug-In . SVG Version: 6.00 Build 0)  -->
<svg version="1.1" id="Layer_1" xmlns="http://www.w3.org/2000/svg" xmlns:xlink="http://www.w3.org/1999/xlink" x="0px" y="0px"
	 viewBox="0 0 80 80" style="enable-background:new 0 0 80 80;" xml:space="preserve">
<style type="text/css">
	.st0{fill:none;stroke:#2E3B4E;stroke-width:0.439;stroke-linecap:round;stroke-linejoin:round;stroke-miterlimit:10;}
	.st1{fill:none;stroke:#2E3B4E;stroke-width:0.439;stroke-linejoin:round;stroke-miterlimit:10;}
	.st2{fill:none;stroke:#2E3B4E;stroke-width:0.439;stroke-miterlimit:10;}
	.st3{fill:#2E3B4E;}
</style>
<g>
	<path class="st3" d="M44.4,47.2c0,0.2,0.2,0.4,0.4,0.4s0.4-0.2,0.4-0.4s-0.2-0.4-0.4-0.4S44.4,47,44.4,47.2"/>
	<path class="st3" d="M41.3,47.2c0,0.2,0.2,0.4,0.4,0.4s0.4-0.2,0.4-0.4s-0.2-0.4-0.4-0.4S41.3,47,41.3,47.2"/>
	<path class="st0" d="M41.5,49.6c0.5,0.5,1.1,0.9,1.8,0.9s1.3-0.3,1.8-0.9"/>
	<path class="st3" d="M37.8,40.6c0,0.2,0.2,0.4,0.4,0.4s0.4-0.2,0.4-0.4s-0.2-0.4-0.4-0.4S37.8,40.4,37.8,40.6"/>
	<path class="st3" d="M34.7,40.6c0,0.2,0.2,0.4,0.4,0.4s0.4-0.2,0.4-0.4s-0.2-0.4-0.4-0.4S34.7,40.4,34.7,40.6"/>
	<path class="st0" d="M38.5,43.9C38,43.4,37.4,43,36.7,43s-1.3,0.3-1.8,0.9"/>
	<path class="st1" d="M38.3,46.7c-0.5,0.2-1,0.2-1.6,0.2c-2.9,0-5.3-2.3-5.3-5.3s2.3-5.3,5.3-5.3s5.3,2.3,5.3,5.3
		c0,0.5-0.1,1.1-0.2,1.6"/>
	<circle class="st0" cx="43.3" cy="48.3" r="5.3"/>
</g>
</svg>
