<?xml version="1.0" encoding="utf-8"?>
<!-- Generator: Adobe Illustrator 19.2.0, SVG Export Plug-In . SVG Version: 6.00 Build 0)  -->
<svg version="1.1" id="Layer_1" xmlns="http://www.w3.org/2000/svg" xmlns:xlink="http://www.w3.org/1999/xlink" x="0px" y="0px"
	 viewBox="0 0 258 110.9" style="enable-background:new 0 0 258 110.9;" xml:space="preserve">
<style type="text/css">
	.st0{fill:#FFFFFF;}
	.st1{fill:none;}
	.st2{fill:none;stroke:url(#SVGID_1_);stroke-width:12.3534;stroke-linecap:round;stroke-miterlimit:10;}
	.st3{fill:none;stroke:url(#SVGID_2_);stroke-width:12.3534;stroke-linecap:round;stroke-miterlimit:10;}
</style>
<g>
	<g>
		<path class="st0" d="M100.5,59.8l4.7-12.6h4.1l4.7,12.7l4.7-12.7h4L116.2,65H112l-4.8-12.8L102.4,65h-4.2l-6.6-17.8h4.2
			L100.5,59.8z"/>
		<path class="st0" d="M138.7,47.3c1.2,0.5,2.2,1.1,3,2s1.5,1.8,2,3s0.7,2.4,0.7,3.8s-0.2,2.6-0.7,3.7c-0.5,1.1-1.2,2.1-2,3
			c-0.9,0.8-1.9,1.5-3,2c-1.2,0.5-2.4,0.7-3.8,0.7c-1.4,0-2.6-0.2-3.8-0.7s-2.2-1.1-3-2c-0.9-0.8-1.5-1.8-2-3
			c-0.5-1.1-0.7-2.4-0.7-3.7s0.2-2.6,0.7-3.8s1.2-2.2,2-3s1.9-1.5,3-2c1.2-0.5,2.4-0.7,3.8-0.7C136.3,46.6,137.5,46.9,138.7,47.3z
			 M137.1,61.3c0.7-0.3,1.3-0.7,1.7-1.2c0.5-0.5,0.9-1.1,1.1-1.8c0.3-0.7,0.4-1.4,0.4-2.3c0-0.8-0.1-1.6-0.4-2.3
			c-0.3-0.7-0.6-1.3-1.1-1.8s-1.1-0.9-1.7-1.2c-0.7-0.3-1.4-0.4-2.2-0.4s-1.5,0.1-2.2,0.4c-0.7,0.3-1.3,0.7-1.7,1.2
			c-0.5,0.5-0.9,1.1-1.1,1.8s-0.4,1.5-0.4,2.3s0.1,1.6,0.4,2.3c0.3,0.7,0.7,1.3,1.1,1.8c0.5,0.5,1.1,0.9,1.7,1.2
			c0.7,0.3,1.4,0.4,2.2,0.4C135.7,61.7,136.5,61.6,137.1,61.3z"/>
		<path class="st0" d="M155.9,59.8l4.7-12.6h4.1l4.7,12.7l4.7-12.7h4L171.6,65h-4.2l-4.8-12.8L157.8,65h-4.2L147,47.1h4.2
			L155.9,59.8z"/>
		<path class="st0" d="M185.9,65h-4V39.4h4V65z"/>
		<path class="st0" d="M204,47.3c1.2,0.5,2.2,1.1,3,2s1.5,1.8,2,3s0.7,2.4,0.7,3.8s-0.2,2.6-0.7,3.7c-0.5,1.1-1.2,2.1-2,3
			c-0.9,0.8-1.9,1.5-3,2c-1.2,0.5-2.4,0.7-3.8,0.7c-1.4,0-2.6-0.2-3.8-0.7s-2.2-1.1-3-2c-0.9-0.8-1.5-1.8-2-3
			c-0.5-1.1-0.7-2.4-0.7-3.7s0.2-2.6,0.7-3.8s1.2-2.2,2-3c0.9-0.8,1.9-1.5,3-2c1.2-0.5,2.4-0.7,3.8-0.7
			C201.5,46.6,202.8,46.9,204,47.3z M202.4,61.3c0.7-0.3,1.3-0.7,1.7-1.2c0.5-0.5,0.9-1.1,1.1-1.8c0.3-0.7,0.4-1.4,0.4-2.3
			c0-0.8-0.1-1.6-0.4-2.3c-0.3-0.7-0.6-1.3-1.1-1.8s-1.1-0.9-1.7-1.2c-0.7-0.3-1.4-0.4-2.2-0.4s-1.5,0.1-2.2,0.4
			c-0.7,0.3-1.3,0.7-1.7,1.2c-0.5,0.5-0.9,1.1-1.1,1.8s-0.4,1.5-0.4,2.3s0.1,1.6,0.4,2.3c0.3,0.7,0.7,1.3,1.1,1.8
			c0.5,0.5,1.1,0.9,1.7,1.2c0.7,0.3,1.4,0.4,2.2,0.4S201.7,61.6,202.4,61.3z"/>
		<path class="st0" d="M232,64c0,1.4-0.2,2.7-0.6,3.8c-0.4,1.1-1,2.1-1.8,2.9s-1.8,1.4-2.9,1.9c-1.1,0.4-2.5,0.6-3.9,0.6
			c-1,0-2-0.1-3-0.4c-0.9-0.3-1.8-0.7-2.6-1.2s-1.5-1.2-2.1-1.9c-0.6-0.8-1.1-1.6-1.4-2.6h4.4c0.4,0.7,1,1.3,1.8,1.8
			c0.8,0.4,1.8,0.6,2.9,0.6c1.7,0,2.9-0.5,3.9-1.5c0.9-1,1.4-2.3,1.4-3.9v-0.8c-0.6,0.7-1.4,1.2-2.4,1.6s-2,0.6-3.2,0.6
			c-1.5,0-2.7-0.3-3.9-0.8c-1.1-0.5-2.1-1.2-2.8-2.1c-0.8-0.9-1.3-1.9-1.8-3c-0.4-1.1-0.6-2.3-0.6-3.6s0.2-2.4,0.6-3.5
			c0.4-1.1,1-2.1,1.8-3s1.7-1.6,2.8-2.1s2.4-0.8,3.9-0.8c1.1,0,2.2,0.2,3.2,0.6c1,0.4,1.8,0.9,2.4,1.6v-1.6h4L232,64L232,64z
			 M227.6,53.5c-0.3-0.7-0.7-1.3-1.2-1.8s-1.1-0.8-1.8-1.1c-0.7-0.2-1.3-0.3-2-0.3c-0.8,0-1.5,0.2-2.2,0.5c-0.6,0.3-1.2,0.7-1.7,1.2
			s-0.8,1.1-1.1,1.8s-0.4,1.4-0.4,2.2s0.1,1.5,0.4,2.2c0.3,0.7,0.6,1.3,1.1,1.8s1,0.9,1.7,1.2c0.6,0.3,1.4,0.5,2.2,0.5
			c0.7,0,1.4-0.1,2-0.3c0.7-0.2,1.3-0.6,1.8-1.1s0.9-1.1,1.2-1.8s0.5-1.5,0.5-2.5C228.1,55.1,227.9,54.2,227.6,53.5z"/>
		<path class="st0" d="M250,47.3c1.2,0.5,2.2,1.1,3,2c0.9,0.8,1.5,1.8,2,3s0.7,2.4,0.7,3.8s-0.2,2.6-0.7,3.7c-0.5,1.1-1.2,2.1-2,3
			c-0.9,0.8-1.9,1.5-3,2c-1.2,0.5-2.4,0.7-3.8,0.7s-2.6-0.2-3.8-0.7c-1.2-0.5-2.2-1.1-3-2c-0.9-0.8-1.5-1.8-2-3
			c-0.5-1.1-0.7-2.4-0.7-3.7s0.2-2.6,0.7-3.8s1.2-2.2,2-3c0.9-0.8,1.9-1.5,3-2c1.2-0.5,2.4-0.7,3.8-0.7
			C247.6,46.6,248.8,46.9,250,47.3z M248.4,61.3c0.7-0.3,1.3-0.7,1.7-1.2c0.5-0.5,0.9-1.1,1.1-1.8c0.3-0.7,0.4-1.4,0.4-2.3
			c0-0.8-0.1-1.6-0.4-2.3s-0.6-1.3-1.1-1.8s-1.1-0.9-1.7-1.2c-0.7-0.3-1.4-0.4-2.2-0.4s-1.5,0.1-2.2,0.4c-0.7,0.3-1.3,0.7-1.7,1.2
			c-0.5,0.5-0.9,1.1-1.1,1.8s-0.4,1.5-0.4,2.3s0.1,1.6,0.4,2.3s0.7,1.3,1.1,1.8c0.5,0.5,1.1,0.9,1.7,1.2c0.7,0.3,1.4,0.4,2.2,0.4
			S247.8,61.6,248.4,61.3z"/>
	</g>
	<circle class="st1" cx="29.2" cy="55.5" r="41.1"/>
	<circle class="st0" cx="50" cy="47.4" r="6.2"/>
	<g>
		<circle class="st0" cx="39.4" cy="63.8" r="6.2"/>
	</g>
	<g>
		<circle class="st0" cx="8.3" cy="47.4" r="6.2"/>
	</g>
	
		<linearGradient id="SVGID_1_" gradientUnits="userSpaceOnUse" x1="2.1233" y1="54.92" x2="24.6377" y2="54.92" gradientTransform="matrix(1 0 0 -1 0 110.52)">
		<stop  offset="0" style="stop-color:#FFFFFF;stop-opacity:0"/>
		<stop  offset="1" style="stop-color:#FFFFFF"/>
	</linearGradient>
	<line class="st2" x1="8.3" y1="47.4" x2="18.5" y2="63.8"/>
	
		<linearGradient id="SVGID_2_" gradientUnits="userSpaceOnUse" x1="23.0233" y1="54.92" x2="45.5377" y2="54.92" gradientTransform="matrix(1 0 0 -1 0 110.52)">
		<stop  offset="0" style="stop-color:#FFFFFF"/>
		<stop  offset="1" style="stop-color:#FFFFFF;stop-opacity:0"/>
	</linearGradient>
	<line class="st3" x1="39.4" y1="63.8" x2="29.2" y2="47.4"/>
</g>
</svg>
